<?xml version="1.0" encoding="UTF-8" standalone="no"?>
<!-- Created with Inkscape (http://www.inkscape.org/) -->

<svg
   xmlns:dc="http://purl.org/dc/elements/1.1/"
   xmlns:cc="http://creativecommons.org/ns#"
   xmlns:rdf="http://www.w3.org/1999/02/22-rdf-syntax-ns#"
   xmlns:svg="http://www.w3.org/2000/svg"
   xmlns="http://www.w3.org/2000/svg"
   xmlns:sodipodi="http://sodipodi.sourceforge.net/DTD/sodipodi-0.dtd"
   xmlns:inkscape="http://www.inkscape.org/namespaces/inkscape"
   width="280"
   height="280"
   id="svg2"
   version="1.1"
   inkscape:version="0.48.3.1 r9886"
   sodipodi:docname="Icon.svg"
   inkscape:export-filename="/home/paul/Teufel/PyCorrFit/doc-src/Images/Icon.png"
   inkscape:export-xdpi="82.285713"
   inkscape:export-ydpi="82.285713">
  <defs
     id="defs4" />
  <sodipodi:namedview
     id="base"
     pagecolor="#ffffff"
     bordercolor="#666666"
     borderopacity="1.0"
     inkscape:pageopacity="0.0"
     inkscape:pageshadow="2"
     inkscape:zoom="2.8"
     inkscape:cx="242.5741"
     inkscape:cy="162.07305"
     inkscape:document-units="px"
     inkscape:current-layer="layer1"
     showgrid="false"
     fit-margin-top="0"
     fit-margin-left="0"
     fit-margin-right="0"
     fit-margin-bottom="0"
     inkscape:window-width="1053"
     inkscape:window-height="751"
     inkscape:window-x="41"
     inkscape:window-y="24"
     inkscape:window-maximized="0" />
  <metadata
     id="metadata7">
    <rdf:RDF>
      <cc:Work
         rdf:about="">
        <dc:format>image/svg+xml</dc:format>
        <dc:type
           rdf:resource="http://purl.org/dc/dcmitype/StillImage" />
        <dc:title></dc:title>
      </cc:Work>
    </rdf:RDF>
  </metadata>
  <g
     inkscape:label="Ebene 1"
     inkscape:groupmode="layer"
     id="layer1"
     transform="translate(-72.322502,-192.61096)">
    <path
       sodipodi:type="arc"
       style="fill:#ffffff;fill-opacity:0.17210681;stroke:#ffffff;stroke-width:6.37775278;stroke-linecap:round;stroke-miterlimit:4;stroke-opacity:0.44510384;stroke-dasharray:none"
       id="path3820"
       sodipodi:cx="112.14286"
       sodipodi:cy="46.627132"
       sodipodi:rx="125"
       sodipodi:ry="125.71429"
       d="m 237.14286,46.627132 c 0,69.430088 -55.96441,125.714288 -125,125.714288 -69.035593,0 -125,-56.2842 -125,-125.714288 0,-69.430083 55.964407,-125.714286 125,-125.714286 69.03559,0 125,56.284203 125,125.714286 z"
       transform="matrix(0.8109252,0,0,0.80631769,129.88302,299.077)" />
    <path
       sodipodi:type="arc"
       style="fill:#008000;fill-opacity:1;stroke:#008000;stroke-width:11.25699711000000036;stroke-miterlimit:4;stroke-opacity:1;stroke-dasharray:none"
       id="path2985-3"
       sodipodi:cx="161.6244"
       sodipodi:cy="424.0473"
       sodipodi:rx="44.446712"
       sodipodi:ry="36.36549"
       d="m 206.07112,424.0473 c 0,20.08411 -19.89947,36.36549 -44.44672,36.36549 -24.54724,0 -44.44671,-16.28138 -44.44671,-36.36549 0,-20.0841 19.89947,-36.36549 44.44671,-36.36549 24.54725,0 44.44672,16.28139 44.44672,36.36549 z"
       transform="matrix(0.5624713,0,0,0.68746496,129.9134,45.15562)" />
    <path
       style="fill:none;stroke:#008000;stroke-width:7;stroke-linecap:round;stroke-linejoin:miter;stroke-miterlimit:4;stroke-opacity:1;stroke-dasharray:none"
       d="m 83.272048,410.80442 c 0,0 78.208002,-28.60158 143.480012,-77.09641 68.08557,-50.5852 91.8236,-119.88089 91.8236,-119.88089"
       id="path3780"
       inkscape:connector-curvature="0"
       sodipodi:nodetypes="csc" />
    <path
       sodipodi:type="arc"
       style="fill:#c48d0a;fill-opacity:1;stroke:#008000;stroke-width:11.25699711000000036;stroke-miterlimit:4;stroke-opacity:1;stroke-dasharray:none"
       id="path2985"
       sodipodi:cx="161.6244"
       sodipodi:cy="424.0473"
       sodipodi:rx="44.446712"
       sodipodi:ry="36.36549"
       d="m 206.07112,424.0473 c 0,20.08411 -19.89947,36.36549 -44.44672,36.36549 -24.54724,0 -44.44671,-16.28138 -44.44671,-36.36549 0,-20.0841 19.89947,-36.36549 44.44671,-36.36549 24.54725,0 44.44672,16.28139 44.44672,36.36549 z"
       transform="matrix(0.5624713,0,0,0.68746496,47.268604,93.89513)" />
    <path
       sodipodi:type="arc"
       style="fill:#303dc7;fill-opacity:1;stroke:#008000;stroke-width:11.25699711000000036;stroke-miterlimit:4;stroke-opacity:1;stroke-dasharray:none"
       id="path2985-1"
       sodipodi:cx="161.6244"
       sodipodi:cy="424.0473"
       sodipodi:rx="44.446712"
       sodipodi:ry="36.36549"
       d="m 206.07112,424.0473 c 0,20.08411 -19.89947,36.36549 -44.44672,36.36549 -24.54724,0 -44.44671,-16.28138 -44.44671,-36.36549 0,-20.0841 19.89947,-36.36549 44.44671,-36.36549 24.54725,0 44.44672,16.28139 44.44672,36.36549 z"
       transform="matrix(0.5624713,0,0,0.68746496,195.09091,-23.441194)" />
  </g>
</svg>
